<svg width="177" height="170" viewBox="0 0 177 170" fill="none" xmlns="http://www.w3.org/2000/svg">
<path d="M54.9976 119.499L59.4366 146.085C60.5106 152.515 68.1694 155.344 73.1653 151.156L95.462 132.465L98.4113 135.98L102.324 129.917C103.241 130.508 104.185 131.089 105.152 131.658L115.438 137.71L83.9968 164.067C69.0053 176.633 46.0307 168.148 42.8108 148.861L38.3717 122.274C38.2783 121.714 38.2103 121.182 38.1605 120.703L54.929 118.964C54.9517 119.182 54.9738 119.356 54.9976 119.499Z" fill="url(#paint0_linear_3915_5512)"/>
<path d="M124.264 3.7332C132.839 0.684798 143.22 -1.30738 152.511 1.01011C163.677 3.78864 170.627 11.9673 173.779 20.7217C176.756 28.9477 176.77 37.9896 176.77 45.1719V48.6135L176.742 48.6409C176.787 56.6111 176.846 67.0479 176.896 75.9403C176.925 81.066 176.951 85.6787 176.97 89.0101C176.979 90.6756 176.987 92.0218 176.992 92.9507C176.994 93.4152 176.996 93.776 176.997 94.0202C176.998 94.1418 177 94.2347 177 94.2972V94.5988C176.999 94.654 176.996 94.7293 176.995 94.8237C176.991 95.0131 176.988 95.2806 176.978 95.6162C176.959 96.2868 176.924 97.2362 176.86 98.3996C176.732 100.719 176.483 103.935 176.004 107.512C175.102 114.246 173.196 123.841 168.635 130.687L168.624 130.701C159.585 144.207 141.717 153.977 125.479 154.427H125.463C112.052 154.773 101.383 149.359 93.1904 144.078L93.1575 144.059C84.6076 138.495 79.0394 133.876 71.1351 131.376L71.1186 131.37C66.6331 129.943 61.4271 129.268 55.4228 128.823C49.8353 128.408 42.7775 128.165 36.5802 127.495H36.5637C30.6172 126.841 23.5635 125.519 17.3315 122.833C11.2207 120.2 4.51896 115.635 1.76193 107.721L1.75919 107.715C-2.58119 95.2263 1.29622 80.6858 11.3369 69.559L11.3424 69.5535C19.4281 60.6091 30.5681 54.3922 39.8532 49.1811L69.9745 32.3133C80.0145 26.6989 90.0534 21.0908 100.09 15.4839L100.121 15.4674C107.414 11.43 115.562 6.82666 124.264 3.7332ZM148.434 17.3569C143.823 16.2053 137.171 17.0271 129.91 19.6083C122.782 22.1422 115.925 25.9738 108.313 30.188L108.316 30.1908C88.2395 41.4057 68.1704 52.6174 48.1031 63.8743L48.1003 63.8715C38.3252 69.3576 29.761 74.3107 23.8502 80.849L23.8474 80.8463C17.0416 88.3909 15.7613 96.6533 17.6799 102.181L17.7897 102.461C18.4061 103.888 20.0859 105.673 24.0038 107.361C28.0622 109.11 33.2577 110.179 38.4074 110.745C44.3605 111.388 49.9354 111.521 56.6711 112.021C62.989 112.489 69.7944 113.27 76.2161 115.311C86.9876 118.718 95.5923 125.533 102.324 129.917C109.412 134.486 116.604 137.796 125.01 137.584C135.845 137.284 148.641 130.256 154.613 121.333C156.86 117.948 158.429 111.763 159.299 105.275C159.706 102.236 159.918 99.473 160.028 97.47C160.084 96.4733 160.112 95.6757 160.127 95.1391C160.135 94.8717 160.139 94.6697 160.141 94.5413C160.142 94.4771 160.143 94.4303 160.144 94.4041C160.144 94.3911 160.144 94.3795 160.144 94.3795C160.143 94.3173 160.142 94.2274 160.141 94.1135C160.14 93.8694 160.138 93.5099 160.135 93.0467C160.13 92.1179 160.123 90.7716 160.114 89.106C160.095 85.7749 160.068 81.162 160.039 76.0363C159.982 65.7839 159.913 53.4764 159.867 45.2651L159.847 41.7961L159.891 41.7495C159.817 35.6829 159.462 30.6877 157.93 26.453L157.924 26.4366C156.284 21.8724 153.105 18.5177 148.44 17.3569H148.434Z" fill="url(#paint1_linear_3915_5512)"/>
<path d="M155.056 1.80426C155.359 1.89957 155.8 2.0375 156.269 2.20737L153.399 10.1298L153.051 11.0869L155.8 17.5998C151.124 19.5714 146.276 22.6705 141.679 26.4245C134.103 32.6113 127.446 40.2435 120.211 48.4615C110.652 59.4027 101.097 70.3437 91.5435 81.2894L62.8955 114.153C59.6841 117.844 56.5512 121.457 53.6004 125.133L40.4533 114.592C43.6427 110.618 46.9839 106.765 50.1764 103.096L78.8409 70.2133C88.3984 59.2631 97.9586 48.3206 107.516 37.3799L107.538 37.3553C114.533 29.4112 122.143 20.6198 131.012 13.3767C136.497 8.89728 142.718 4.83232 149.248 2.07849L152.102 0.874623L155.056 1.80426Z" fill="url(#paint2_linear_3915_5512)"/>
<defs>
<linearGradient id="paint0_linear_3915_5512" x1="45" y1="24" x2="177" y2="170" gradientUnits="userSpaceOnUse">
<stop stop-color="#3BCF7A"/>
<stop offset="1" stop-color="#3D7BD6"/>
</linearGradient>
<linearGradient id="paint1_linear_3915_5512" x1="45" y1="24" x2="177" y2="170" gradientUnits="userSpaceOnUse">
<stop stop-color="#3BCF7A"/>
<stop offset="1" stop-color="#3D7BD6"/>
</linearGradient>
<linearGradient id="paint2_linear_3915_5512" x1="45" y1="24" x2="177" y2="170" gradientUnits="userSpaceOnUse">
<stop stop-color="#3BCF7A"/>
<stop offset="1" stop-color="#3D7BD6"/>
</linearGradient>
</defs>
</svg>
